HIERARCHY
ROOT Hips
{
	OFFSET 0.000000 0.000000 0.000000 
	CHANNELS 6 Xposition Yposition Zposition Zrotation Yrotation Xrotation
	JOINT LeftUpLeg
	{
		OFFSET 1.363060 -1.794630 0.839290 
		CHANNELS 3 Zrotation Yrotation Xrotation
		JOINT LeftLeg
		{
			OFFSET 2.448110 -6.726130 0.000000 
			CHANNELS 3 Zrotation Yrotation Xrotation
			JOINT LeftFoot
			{
				OFFSET 2.562200 -7.039590 0.000000 
				CHANNELS 3 Zrotation Yrotation Xrotation
				JOINT LeftToeBase
				{
					OFFSET 0.157640 -0.433110 2.322550 
					CHANNELS 3 Zrotation Yrotation Xrotation
					End Site
					{
						OFFSET 0.000000 0.000000 0.000000 
					}
				}
			}
		}
	}
	JOINT RightUpLeg
	{
		OFFSET -1.305520 -1.794630 0.839290 
		CHANNELS 3 Zrotation Yrotation Xrotation
		JOINT RightLeg
		{
			OFFSET -2.542530 -6.985550 0.000000 
			CHANNELS 3 Zrotation Yrotation Xrotation
			JOINT RightFoot
			{
				OFFSET -2.568260 -7.056230 0.000000 
				CHANNELS 3 Zrotation Yrotation Xrotation
				JOINT RightToeBase
				{
					OFFSET -0.164730 -0.452590 2.363150 
					CHANNELS 3 Zrotation Yrotation Xrotation
					End Site
					{
						OFFSET 0.000000 0.000000 0.000000 
					}
				}
			}
		}
	}
	JOINT Spine
	{
		OFFSET 0.028270 2.035590 -0.193380 
		CHANNELS 3 Zrotation Yrotation Xrotation
		JOINT Spine1
		{
			OFFSET 0.056720 2.048850 -0.042750 
			CHANNELS 3 Zrotation Yrotation Xrotation
			JOINT Neck1
			{
				OFFSET -0.054170 1.746240 0.172020 
				CHANNELS 3 Zrotation Yrotation Xrotation
				JOINT Head
				{
					OFFSET 0.104070 1.761360 -0.123970 
					CHANNELS 3 Zrotation Yrotation Xrotation
					End Site
					{
						OFFSET 0.000000 0.000000 0.000000 
					}
				}
			}
			JOINT LeftArm
			{
				OFFSET 3.362410 1.200890 -0.311210 
				CHANNELS 3 Zrotation Yrotation Xrotation
				JOINT LeftForeArm
				{
					OFFSET 4.983000 -0.000000 -0.000000 
					CHANNELS 3 Zrotation Yrotation Xrotation
					JOINT LeftHand
					{
						OFFSET 3.483560 -0.000000 -0.000000 
						CHANNELS 3 Zrotation Yrotation Xrotation
						JOINT LeftHandIndex1
						{
							OFFSET 0.715260 -0.000000 -0.000000 
							CHANNELS 3 Zrotation Yrotation Xrotation
							End Site
							{
								OFFSET 0.000000 0.000000 0.000000 
							}
						}
					}
				}
			}
			JOINT RightArm
			{
				OFFSET -3.136600 1.374050 -0.404650 
				CHANNELS 3 Zrotation Yrotation Xrotation
				JOINT RightForeArm
				{
					OFFSET -5.241900 -0.000000 -0.000000 
					CHANNELS 3 Zrotation Yrotation Xrotation
					JOINT RightHand
					{
						OFFSET -3.444170 -0.000000 -0.000000 
						CHANNELS 3 Zrotation Yrotation Xrotation
						JOINT RightHandIndex1
						{
							OFFSET -0.622530 -0.000000 -0.000000 
							CHANNELS 3 Zrotation Yrotation Xrotation
							End Site
							{
								OFFSET 0.000000 0.000000 0.000000 
							}
						}
					}
				}
			}
		}
	}
}
MOTION
Frames: 8
Frame Time: 0.041667
0.000000 0.000000 0.000000 31.890537 8.772061 177.594929 27.936055 -86.551244 -41.015032 -27.887291 17.221910 49.286855 161.691234 71.493363 -95.630384 0.000000 0.000000 0.000000 125.482726 53.828250 -16.843143 -110.850064 28.491672 127.982449 -129.702335 66.202138 178.050704 0.000000 0.000000 0.000000 0.027809 -63.025582 -19.870269 14.056427 -12.074432 19.062791 34.026582 -13.779172 52.367098 0.000000 0.000000 0.000000 -81.248050 -32.487671 68.098428 -30.210103 -10.492973 -34.933263 -25.189545 47.195354 -26.695398 0.000000 0.000000 0.000000 -81.459924 -80.777877 165.561421 47.194394 -78.799835 162.553554 -115.228999 -31.218989 -17.872161 0.000000 0.000000 0.000000 
0.000000 0.000000 0.000000 31.890537 8.772061 177.594929 27.936055 -86.551244 -41.015032 -27.887291 17.221910 49.286855 161.691234 71.493363 -95.630384 0.000000 0.000000 0.000000 125.482726 53.828250 -16.843143 -110.850064 28.491672 127.982449 -129.702335 66.202138 178.050704 0.000000 0.000000 0.000000 0.027809 -63.025582 -19.870269 14.056427 -12.074432 19.062791 34.026582 -13.779172 52.367098 0.000000 0.000000 0.000000 -81.248050 -32.487671 68.098428 -30.210103 -10.492973 -34.933263 -25.189545 47.195354 -26.695398 0.000000 0.000000 0.000000 -81.459924 -80.777877 165.561421 47.194394 -78.799835 162.553554 -115.228999 -31.218989 -17.872161 0.000000 0.000000 0.000000 
0.000000 0.000000 0.000000 31.890537 8.772061 177.594929 27.936055 -86.551244 -41.015032 -27.887291 17.221910 49.286855 161.691234 71.493363 -95.630384 0.000000 0.000000 0.000000 125.482726 53.828250 -16.843143 -110.850064 28.491672 127.982449 -129.702335 66.202138 178.050704 0.000000 0.000000 0.000000 0.027809 -63.025582 -19.870269 14.056427 -12.074432 19.062791 34.026582 -13.779172 52.367098 0.000000 0.000000 0.000000 -81.248050 -32.487671 68.098428 -30.210103 -10.492973 -34.933263 -25.189545 47.195354 -26.695398 0.000000 0.000000 0.000000 -81.459924 -80.777877 165.561421 47.194394 -78.799835 162.553554 -115.228999 -31.218989 -17.872161 0.000000 0.000000 0.000000 
0.000000 0.000000 0.000000 31.890537 8.772061 177.594929 27.936055 -86.551244 -41.015032 -27.887291 17.221910 49.286855 161.691234 71.493363 -95.630384 0.000000 0.000000 0.000000 125.482726 53.828250 -16.843143 -110.850064 28.491672 127.982449 -129.702335 66.202138 178.050704 0.000000 0.000000 0.000000 0.027809 -63.025582 -19.870269 14.056427 -12.074432 19.062791 34.026582 -13.779172 52.367098 0.000000 0.000000 0.000000 -81.248050 -32.487671 68.098428 -30.210103 -10.492973 -34.933263 -25.189545 47.195354 -26.695398 0.000000 0.000000 0.000000 -81.459924 -80.777877 165.561421 47.194394 -78.799835 162.553554 -115.228999 -31.218989 -17.872161 0.000000 0.000000 0.000000 
0.000000 0.000000 0.000000 31.890537 8.772061 177.594929 27.936055 -86.551244 -41.015032 -27.887291 17.221910 49.286855 161.691234 71.493363 -95.630384 0.000000 0.000000 0.000000 125.482726 53.828250 -16.843143 -110.850064 28.491672 127.982449 -129.702335 66.202138 178.050704 0.000000 0.000000 0.000000 0.027809 -63.025582 -19.870269 14.056427 -12.074432 19.062791 34.026582 -13.779172 52.367098 0.000000 0.000000 0.000000 -81.248050 -32.487671 68.098428 -30.210103 -10.492973 -34.933263 -25.189545 47.195354 -26.695398 0.000000 0.000000 0.000000 -81.459924 -80.777877 165.561421 47.194394 -78.799835 162.553554 -115.228999 -31.218989 -17.872161 0.000000 0.000000 0.000000 
-97.873375 55.659222 2.796718 104.665219 -57.051097 -133.368891 -110.518707 31.644906 -152.856789 -68.270469 87.130927 -166.281107 177.470089 -57.074807 16.920463 0.743600 -5.508600 -15.365100 122.057071 -75.563880 -37.042135 20.371774 -58.404736 3.949283 -127.922951 72.976161 -96.772238 -0.178800 -2.724000 7.511200 -74.031050 21.507354 -95.652941 -154.269170 38.904221 46.444112 -125.331736 -74.276260 -83.659331 -0.782300 2.154900 11.864700 -125.098601 -46.352385 67.542247 -59.468141 -63.691061 -144.208899 146.968607 -72.352417 -147.836143 0.000000 0.000000 0.000000 173.772409 58.922704 -75.247362 62.476424 -10.025670 -10.562312 4.463827 16.444431 -0.108866 7.125000 0.000000 0.000000 
-97.880882 55.669013 2.796718 -170.638645 -19.100839 135.867945 -137.831261 -82.110013 74.678206 -108.703997 18.817016 -68.367979 -98.567564 -9.700982 -107.261398 0.724200 -5.437800 -15.161600 131.192533 87.353151 111.840477 38.821563 -68.958218 177.045960 152.609963 -21.270082 143.924897 -0.172500 -2.675300 7.376000 -31.699247 1.497333 -142.241439 123.213097 27.936090 -19.622262 -118.606199 -77.493878 26.467169 -0.778800 2.174100 11.837600 -162.025037 77.904551 37.567795 -14.032153 -16.149665 162.806520 -21.491233 -25.148515 11.295747 0.000000 0.000000 0.000000 -162.733245 60.190443 62.809201 152.135003 50.836526 -12.016362 -8.269819 26.096695 5.873235 7.125000 0.000000 0.000000 
-97.887736 55.673582 2.797697 170.070365 -21.383062 -4.847263 -87.023755 -15.877032 -131.364610 -69.562729 41.586985 -121.793589 79.201154 -59.515077 -141.736939 0.828900 -5.808500 -16.229800 -71.150060 -17.336235 -172.556171 123.573078 -36.492716 58.709893 33.171895 -85.747179 -166.699047 -0.151900 -2.511700 6.922200 -66.295040 -56.727921 -63.292258 -29.388012 -72.175159 -0.241180 39.579353 67.579380 40.350983 -0.743900 2.167600 11.805600 -84.054982 89.974255 -63.785337 66.627759 -20.986373 169.082437 176.173904 -82.478651 179.861835 0.000000 0.000000 0.000000 24.843212 1.668310 -85.570212 -31.178852 43.851578 5.408217 -8.711401 18.108736 14.268846 7.125000 0.000000 0.000000 
